<svg xmlns="http://www.w3.org/2000/svg" width="340" height="350" viewBox="0 0 340 350"><rect x="45" y="15" width="250" height="320" rx="16" fill="#176858"/><rect x="90" y="120" width="160" height="90" fill="#20242b"/><text x="170" y="166" font-family="sans-serif" font-size="18" fill="white" text-anchor="middle">ESP8285</text><circle cx="30" cy="42" r="8" fill="#b89548"/><text x="52" y="47" font-family="sans-serif" font-size="12" fill="white" text-anchor="start">GPIO16</text><circle cx="30" cy="79" r="8" fill="#b89548"/><text x="52" y="84" font-family="sans-serif" font-size="12" fill="white" text-anchor="start">GPIO14</text><circle cx="30" cy="116" r="8" fill="#b89548"/><text x="52" y="121" font-family="sans-serif" font-size="12" fill="white" text-anchor="start">GPIO12</text><circle cx="30" cy="153" r="8" fill="#b89548"/><text x="52" y="158" font-family="sans-serif" font-size="12" fill="white" text-anchor="start">GPIO13</text><circle cx="30" cy="190" r="8" fill="#b89548"/><text x="52" y="195" font-family="sans-serif" font-size="12" fill="white" text-anchor="start">GPIO15</text><circle cx="30" cy="227" r="8" fill="#b89548"/><text x="52" y="232" font-family="sans-serif" font-size="12" fill="white" text-anchor="start">GPIO2</text><circle cx="30" cy="264" r="8" fill="#b89548"/><text x="52" y="269" font-family="sans-serif" font-size="12" fill="white" text-anchor="start">GND</text><circle cx="30" cy="301" r="8" fill="#b89548"/><text x="52" y="306" font-family="sans-serif" font-size="12" fill="white" text-anchor="start">3V3</text><circle cx="310" cy="42" r="8" fill="#b89548"/><text x="288" y="47" font-family="sans-serif" font-size="12" fill="white" text-anchor="end">GPIO0</text><circle cx="310" cy="79" r="8" fill="#b89548"/><text x="288" y="84" font-family="sans-serif" font-size="12" fill="white" text-anchor="end">GPIO4</text><circle cx="310" cy="116" r="8" fill="#b89548"/><text x="288" y="121" font-family="sans-serif" font-size="12" fill="white" text-anchor="end">GPIO5</text><circle cx="310" cy="153" r="8" fill="#b89548"/><text x="288" y="158" font-family="sans-serif" font-size="12" fill="white" text-anchor="end">RX / GPIO3</text><circle cx="310" cy="190" r="8" fill="#b89548"/><text x="288" y="195" font-family="sans-serif" font-size="12" fill="white" text-anchor="end">TX / GPIO1</text></svg>